<?xml version="1.0" encoding="utf-8"?>
<!DOCTYPE svg PUBLIC "-//W3C//DTD SVG 1.0//EN" "http://www.w3.org/TR/2001/REC-SVG-20010904/DTD/svg10.dtd">
<svg version="1.0" xmlns="http://www.w3.org/2000/svg" width="1254px" height="1254px" viewBox="0 0 1254 1254" preserveAspectRatio="xMidYMid meet">
 <g fill="#000000">
  <path d="M385.14 1086.60 c-18.86 -2.45 -35.27 -8.20 -48.49 -17.02 -24.25 -16.04 -39.43 -39.19 -43.84 -66.74 -0.86 -5.27 -1.35 -95.27 -1.35 -276.03 0 -291.21 -0.24 -278.84 6.74 -299.29 1.59 -4.90 5.27 -13.10 7.96 -18.12 9.43 -17.51 3.80 -11.51 136.42 -147.93 73.72 -75.80 75.56 -77.52 88.29 -84.13 6.12 -3.06 15.68 -7.23 21.43 -9.06 l10.41 -3.55 60.86 -0.37 c57.43 -0.37 61.48 -0.24 71.27 2.08 12.74 3.06 23.27 7.23 33.80 13.47 9.92 5.88 34.78 30.98 184.55 186.51 27.68 28.66 35.64 40.29 42.37 61.60 7.35 23.51 6.98 7.47 6.98 302.97 0 261.82 -0.12 270.52 -2.45 281.54 -1.47 7.47 -4.29 15.55 -8.08 23.27 -4.90 10.29 -7.23 13.35 -18.12 24.12 -13.23 13.35 -21.55 18.49 -38.09 24.12 l-8.57 2.82 -249.21 0.12 c-137.03 0.12 -250.80 -0.12 -252.88 -0.37z m498.42 -20.57 c27.92 -5.88 50.58 -28.66 56.33 -56.58 1.59 -7.72 1.84 -41.27 1.59 -257.66 l-0.37 -248.84 -7.72 9.92 c-8.82 11.39 -28.90 32.33 -136.79 142.54 -236.10 241 -276.76 284.48 -348.65 372.77 -13.96 17.14 -19.59 23.15 -30.37 32.70 l-7.96 6.98 232.68 0 c200.47 0 233.90 -0.24 241.25 -1.84z m-496.09 -14.08 c17.27 -5.39 34.78 -21.06 48.86 -43.72 13.23 -21.43 20.45 -37.60 47.27 -104.83 49.84 -125.16 65.27 -155.28 95.03 -184.92 16.53 -16.53 32.57 -27.31 75.93 -51.07 130.18 -71.15 201.33 -112.79 233.41 -136.67 15.19 -11.27 32.33 -28.29 38.94 -38.45 7.47 -11.76 11.14 -24.37 11.14 -38.82 0 -18.61 -5.39 -34.17 -17.27 -49.47 -2.94 -3.80 -29.64 -31.84 -59.27 -62.46 -29.64 -30.62 -69.56 -71.88 -88.66 -91.72 -52.17 -54.13 -52.78 -54.74 -74.82 -62.58 -7.84 -2.82 -8.82 -2.82 -67.11 -3.31 -56.09 -0.37 -59.76 -0.24 -68.95 2.08 -13.23 3.31 -24 8.82 -33.55 17.14 -4.41 3.80 -26.33 25.84 -48.74 49.11 -22.41 23.27 -63.56 65.64 -91.36 94.29 -27.80 28.66 -53.39 55.96 -56.70 60.62 -7.59 10.65 -12.49 20.94 -16.04 33.31 l-2.69 9.55 -0.37 271.86 c-0.37 301.38 -0.86 281.78 7.59 300.03 4.41 9.55 13.23 20.08 20.82 24.86 12.25 7.72 31.23 9.80 46.54 5.14z"/>
  <path d="M850 986.30 c-11.76 -3.18 -19.96 -10.04 -24.74 -20.70 -3.92 -8.69 -3.92 -22.17 -0.12 -30.62 13.35 -29.15 53.52 -30 67.60 -1.35 3.80 7.47 3.92 8.69 3.43 18.12 -0.37 7.23 -1.35 11.63 -3.18 15.31 -7.96 15.43 -26.57 23.76 -42.98 19.23z"/>
  <path d="M605.32 977.85 c-5.76 -3.43 -10.16 -11.14 -10.16 -17.76 0 -6.25 5.14 -14.08 11.39 -17.02 5.27 -2.57 6.61 -2.57 85.36 -2.57 78.62 0 80.09 0 85.36 2.57 6.74 3.31 10.41 8.45 11.02 15.68 0.73 8.20 -3.43 15.80 -10.65 19.47 l-5.39 2.69 -80.95 0 -80.82 0 -5.14 -3.06z"/>
  <path d="M651.86 899.97 c-9.18 -2.69 -16.29 -14.21 -14.57 -23.63 0.98 -5.39 7.23 -12.74 12.61 -14.94 3.18 -1.35 16.29 -1.71 63.43 -1.71 56.82 0 59.76 0.12 64.29 2.45 15.43 7.84 14.45 29.51 -1.84 36.86 -4.53 2.08 -9.18 2.33 -62.46 2.20 -31.59 0 -59.27 -0.61 -61.48 -1.22z"/>
  <path d="M618.55 377.06 c-23.27 -2.94 -45.43 -23.76 -50.45 -47.39 -1.96 -9.43 -0.73 -24.86 2.57 -33.55 5.63 -15.06 20.08 -29.64 35.27 -35.39 8.69 -3.31 26.94 -4.53 35.39 -2.45 32.70 8.20 53.15 41.51 45.07 72.99 -2.69 10.41 -7.23 18.74 -14.45 26.70 -13.72 14.94 -32.45 21.68 -53.39 19.10z m23.63 -21.92 c9.31 -3.55 17.02 -10.78 21.80 -20.57 3.43 -6.98 4.04 -9.31 4.04 -17.39 0 -22.04 -16.16 -38.94 -38.45 -40.17 -12.74 -0.73 -21.55 2.69 -30.49 11.51 -9.18 9.31 -11.88 15.68 -11.76 28.66 0 7.96 0.61 11.76 2.57 16.16 4.65 10.16 14.08 18.74 24.74 22.53 6.86 2.45 19.84 2.08 27.55 -0.73z"/>
 </g>
</svg>